<svg id="Layer_1" data-name="Layer 1" xmlns="http://www.w3.org/2000/svg" viewBox="0 0 1080 1080"><defs><style>.cls-1{fill:#ff931e;}.cls-2{fill:#155fa4;}.cls-3,.cls-4{isolation:isolate;fill:#fff;font-family:ArialMT, Arial;}.cls-3{font-size:1000px;letter-spacing:-0.02em;}.cls-4{font-size:500px;}</style></defs><title>Artboard 1</title><g id="_Group_" data-name="&lt;Group&gt;"><path class="cls-1" d="M540,806c0-1,0-2,.1-3a22.61,22.61,0,0,1,.1-2.6c.1-2.7.2-5.5.4-8.2.1-1,.1-2,.2-3s.2-2,.2-3a2.77,2.77,0,0,1,.1-.9c.1-.7.1-1.4.2-2.1a8.75,8.75,0,0,1,.2-1.6c.1-.9.2-1.8.3-2.6.1-1.1.3-2.2.4-3.3s.3-2.3.5-3.5c.1-1,.3-2,.4-3a7.72,7.72,0,0,0,.2-1.5,18.45,18.45,0,0,1,.4-2.3c.4-2.5.8-4.9,1.3-7.3.2-.8.3-1.7.5-2.5.2-1.1.5-2.2.7-3.3.2-.7.3-1.4.5-2.1a1.85,1.85,0,0,1,.2-.7c.1-.6.3-1.1.4-1.7s.3-1.4.5-2.1c.2-1,.5-2,.7-2.9a18.24,18.24,0,0,1,.7-2.5c.2-.6.3-1.3.5-1.9.2-.8.4-1.6.6-2.3.4-1.3.7-2.5,1.1-3.8.1-.5.3-1,.4-1.4l.9-3c.1-.2.1-.4.2-.6l.9-2.7c.1-.4.3-.8.4-1.2.2-.7.5-1.4.7-2.1.3-.9.6-1.9,1-2.8.5-1.3.9-2.6,1.4-3.8s1-2.5,1.5-3.8c.2-.5.4-1.1.6-1.6.3-.8.6-1.5.9-2.3s.6-1.5.9-2.2v-.1c.7-1.6,1.4-3.3,2.1-4.9a23.94,23.94,0,0,1,1.3-2.8l1.5-3.3c.6-1.3,1.2-2.6,1.9-3.8s1.1-2.2,1.7-3.3a22.55,22.55,0,0,0,1.1-2.2,5.73,5.73,0,0,1,.4-.7c.4-.8.9-1.7,1.3-2.5,0-.1.1-.1.1-.2a32.39,32.39,0,0,0,1.7-3.2c.6-1.1,1.3-2.3,1.9-3.4.2-.3.4-.7.6-1,.7-1.1,1.3-2.2,2-3.3.9-1.4,1.8-2.9,2.7-4.3l1.5-2.4a8.78,8.78,0,0,0,.6-1c.7-1.1,1.4-2.1,2.1-3.2l2.1-3a4.23,4.23,0,0,1,.5-.7c.8-1.1,1.5-2.2,2.3-3.2,1.6-2.2,3.2-4.4,4.8-6.5l.3-.3,2.4-3c.2-.3.5-.6.7-.9,1.5-2,3.1-3.9,4.7-5.8a5.72,5.72,0,0,1,.7-.8,28.48,28.48,0,0,1,2.3-2.6h0c.9-1.1,1.9-2.1,2.8-3.2,2.8-3.2,5.8-6.3,8.8-9.3,2-2,4-4,6.1-6,.9-.9,1.9-1.8,2.8-2.6l.6-.6a26.22,26.22,0,0,1,2.5-2.2c1.3-1.2,2.6-2.3,3.9-3.4,1-.8,1.9-1.6,2.9-2.5s1.8-1.5,2.7-2.2c2.5-2,5-4,7.5-5.9,1-.8,2.1-1.6,3.2-2.4s2.3-1.7,3.5-2.5,2.2-1.5,3.3-2.3c.1-.1.3-.2.4-.3,1.1-.8,2.2-1.5,3.3-2.3l2.7-1.8c.6-.4,1.3-.8,1.9-1.2.9-.6,1.7-1.1,2.6-1.6,1.2-.8,2.4-1.5,3.7-2.2s2.5-1.5,3.7-2.2,2.5-1.4,3.7-2.1c.1,0,.1-.1.2-.1,1-.5,2-1.1,3-1.6,1.5-.8,3.1-1.7,4.7-2.5l7.2-3.6c.2-.1.3-.1.5-.2,1.2-.6,2.4-1.1,3.6-1.7l3.9-1.8c1.3-.6,2.6-1.1,4-1.7s2.7-1.1,4-1.6c1.5-.6,3-1.2,4.6-1.8,1.2-.4,2.4-.9,3.5-1.3s2.4-.8,3.6-1.3c3.1-1.1,6.3-2.1,9.4-3.1,1.2-.4,2.4-.7,3.6-1l4.2-1.2c1.4-.4,2.8-.8,4.2-1.1l3.7-.9c.3-.1.6-.1.9-.2l4-.9c1.6-.3,3.2-.7,4.8-1,1.1-.2,2.3-.5,3.4-.7.4-.1.7-.1,1.1-.2,1.3-.2,2.5-.5,3.8-.7l3.8-.6c.5-.1,1-.1,1.4-.2.8-.1,1.7-.3,2.5-.4l2-.3c1-.1,2.1-.3,3.1-.4h.4c1.3-.2,2.6-.3,4-.4s2.6-.3,4-.4c.8-.1,1.6-.1,2.4-.2.3,0,.7-.1,1-.1,1-.1,1.9-.1,2.9-.2,2.4-.2,4.9-.3,7.3-.4a14.77,14.77,0,0,0,2.1-.1c1,0,1.9-.1,2.9-.1h5.1c109.6,0,203.9,65.3,246.2,159-52.4,170.3-186.8,304.8-357.2,357.2-1-.5-2.1-.9-3.1-1.4-1.2-.6-2.5-1.2-3.7-1.8s-2.5-1.2-3.7-1.8c-1-.5-1.9-1-2.9-1.5-1.5-.8-2.9-1.5-4.3-2.3-1.1-.6-2.3-1.2-3.4-1.9l-.6-.3c-1-.5-1.9-1.1-2.9-1.7l-.6-.3c-1.1-.6-2.2-1.3-3.2-1.9-1.2-.7-2.3-1.4-3.5-2.1s-2.4-1.5-3.5-2.3l-3.3-2.1-2.7-1.8c-1.4-.9-2.7-1.8-4-2.8-1.1-.8-2.2-1.6-3.3-2.3l-.1-.1c-1.1-.8-2.1-1.6-3.2-2.4-.9-.7-1.8-1.3-2.6-2-1.6-1.2-3.2-2.5-4.8-3.8-.7-.6-1.4-1.2-2.2-1.8-1.7-1.4-3.5-2.9-5.1-4.4a20,20,0,0,0-1.6-1.4c-.8-.7-1.6-1.4-2.4-2.2-1-.9-2-1.8-3-2.8a38.34,38.34,0,0,1-2.9-2.8c-.8-.8-1.7-1.6-2.5-2.4-3.5-3.4-6.8-6.9-10.1-10.5-.7-.7-1.3-1.5-2-2.2-1.6-1.8-3.2-3.7-4.8-5.5-.7-.9-1.5-1.8-2.2-2.6l-1.3-1.6c-.6-.7-1.2-1.5-1.8-2.2l-2.4-3-2.1-2.7c-.3-.5-.7-.9-1-1.4l-1.8-2.4c-.6-.8-1.2-1.7-1.8-2.5-1-1.4-1.9-2.8-2.9-4.1a278.15,278.15,0,0,1-15.1-25.1c-.5-1-1-1.9-1.5-2.9-.7-1.4-1.4-2.7-2-4.1s-1.3-2.7-1.9-4c-.4-.9-.9-1.9-1.3-2.8-.3-.6-.5-1.1-.8-1.7-1.1-2.4-2.1-4.8-3.2-7.3-.2-.6-.5-1.2-.7-1.8-.3-.8-.6-1.5-.9-2.3-.4-1-.8-2-1.2-3.1-.2-.6-.5-1.2-.7-1.8s-.5-1.3-.7-1.9c-.3-.8-.6-1.6-.9-2.5s-.7-2.1-1.1-3.1c-.3-.8-.5-1.6-.8-2.4-.2-.5-.3-1-.5-1.6-.9-2.6-1.7-5.3-2.4-7.9-.2-.5-.3-1.1-.5-1.6a264.55,264.55,0,0,1-6.1-27c-.1-.8-.3-1.7-.4-2.5-.5-3.1-1-6.2-1.4-9.3-.1-1.1-.3-2.2-.4-3.3-.1-.9-.2-1.8-.3-2.8a17.86,17.86,0,0,1-.2-2.3c-.1-.6-.1-1.2-.2-1.8-.1-1.1-.2-2.3-.3-3.4s-.2-2.3-.2-3.4-.1-2-.2-3c-.1-1.3-.1-2.6-.2-3.9s-.1-2.3-.1-3.5c-.1-2.3-.1-4.6-.1-7C540,808.7,540,807.3,540,806Z"/><path class="cls-1" d="M716,1063.2l2.4.9Z"/><path class="cls-1" d="M767.8,1076.7c1,.2,2,.3,3,.5C769.8,1077,768.8,1076.9,767.8,1076.7Z"/><path class="cls-1" d="M784.1,1078.8l2.9.3A28.48,28.48,0,0,0,784.1,1078.8Z"/><path class="cls-2" d="M1080,540a539.09,539.09,0,0,1-23.8,159A269.88,269.88,0,0,0,810,540h-5.1a28.11,28.11,0,0,0-2.9.1,14.77,14.77,0,0,0-2.1.1c-2.4.1-4.9.2-7.3.4-1,.1-1.9.1-2.9.2a3.08,3.08,0,0,0-1,.1c-.8.1-1.6.1-2.4.2-1.3.1-2.6.2-4,.4s-2.7.3-4,.4h-.4c-1,.1-2.1.3-3.1.4l-2,.3a21.65,21.65,0,0,0-2.5.4c-.5.1-1,.1-1.4.2l-3.8.6c-1.3.2-2.5.4-3.8.7-.4.1-.7.1-1.1.2-1.1.2-2.3.4-3.4.7-1.6.3-3.2.6-4.8,1l-4,.9c-.3.1-.6.1-.9.2l-3.7.9c-1.4.3-2.8.7-4.2,1.1l-4.2,1.2c-1.2.3-2.4.7-3.6,1-3.2,1-6.3,2-9.4,3.1-1.2.4-2.4.8-3.6,1.3s-2.4.9-3.5,1.3c-1.5.6-3,1.2-4.6,1.8-1.3.5-2.7,1.1-4,1.6s-2.7,1.1-4,1.7l-3.9,1.8c-1.2.5-2.4,1.1-3.6,1.7-.2.1-.3.2-.5.2-2.4,1.2-4.8,2.3-7.2,3.6-1.6.8-3.1,1.6-4.7,2.5-1,.5-2,1.1-3,1.6-.1,0-.1.1-.2.1-1.2.7-2.5,1.4-3.7,2.1s-2.5,1.4-3.7,2.2-2.5,1.5-3.7,2.2c-.9.5-1.7,1.1-2.6,1.6-.6.4-1.3.8-1.9,1.2l-2.7,1.8c-1.1.7-2.2,1.5-3.3,2.3-.1.1-.3.2-.4.3-1.1.8-2.2,1.5-3.3,2.3s-2.3,1.7-3.5,2.5-2.1,1.6-3.2,2.4c-2.5,1.9-5.1,3.9-7.5,5.9-.9.7-1.8,1.5-2.7,2.2s-1.9,1.6-2.9,2.5c-1.3,1.1-2.6,2.3-3.9,3.4l-2.5,2.2-.6.6c-1,.9-1.9,1.7-2.8,2.6-2.1,2-4.1,3.9-6.1,6-3,3-5.9,6.1-8.8,9.3-1,1-1.9,2.1-2.8,3.2h0c-.8.9-1.5,1.8-2.3,2.6-.3.3-.5.6-.7.8-1.6,1.9-3.2,3.8-4.7,5.8-.2.3-.5.6-.7.9l-2.4,3-.3.3c-1.6,2.2-3.3,4.3-4.8,6.5-.8,1.1-1.5,2.1-2.3,3.2-.2.2-.3.5-.5.7l-2.1,3c-.7,1-1.4,2.1-2.1,3.2a8.78,8.78,0,0,0-.6,1l-1.5,2.4c-.9,1.4-1.8,2.8-2.7,4.3-.7,1.1-1.3,2.2-2,3.3-.2.3-.4.7-.6,1-.7,1.1-1.3,2.3-1.9,3.4a32.39,32.39,0,0,0-1.7,3.2c0,.1-.1.1-.1.2-.5.8-.9,1.7-1.3,2.5a5.73,5.73,0,0,1-.4.7,22.55,22.55,0,0,0-1.1,2.2c-.6,1.1-1.1,2.2-1.7,3.3-.6,1.3-1.3,2.6-1.9,3.8l-1.5,3.3c-.4.9-.9,1.9-1.3,2.8-.7,1.6-1.4,3.3-2.1,4.9v.1c-.3.7-.6,1.5-.9,2.2s-.6,1.5-.9,2.3c-.2.5-.4,1.1-.6,1.6-.5,1.3-1,2.5-1.5,3.8s-1,2.5-1.4,3.8c-.3.9-.7,1.8-1,2.8a17.24,17.24,0,0,0-.7,2.1c-.1.4-.3.8-.4,1.2l-.9,2.7c-.1.2-.1.4-.2.6l-.9,3a7.37,7.37,0,0,0-.4,1.4c-.4,1.3-.7,2.5-1.1,3.8-.2.8-.4,1.5-.6,2.3-.2.6-.3,1.3-.5,1.9-.2.8-.5,1.7-.7,2.5-.3,1-.5,2-.7,2.9-.2.7-.3,1.4-.5,2.1s-.3,1.1-.4,1.7a1.85,1.85,0,0,1-.2.7c-.2.7-.3,1.4-.5,2.1-.2,1.1-.5,2.2-.7,3.3-.2.8-.3,1.7-.5,2.5-.5,2.4-.9,4.9-1.3,7.3-.1.8-.3,1.5-.4,2.3a7.72,7.72,0,0,0-.2,1.5c-.2,1-.3,2-.4,3-.2,1.2-.3,2.3-.5,3.5s-.3,2.2-.4,3.3c-.1.9-.2,1.7-.3,2.6-.1.5-.1,1.1-.2,1.6-.1.7-.1,1.4-.2,2.1a2.77,2.77,0,0,1-.1.9c-.1,1-.2,2-.2,3s-.1,2-.2,3c-.2,2.7-.3,5.5-.4,8.2,0,.9-.1,1.7-.1,2.6s-.1,2-.1,3v4c0,2.3,0,4.7.1,7,0,1.2.1,2.3.1,3.5s.1,2.6.2,3.9c.1,1,.1,2,.2,3s.2,2.3.2,3.4.2,2.3.3,3.4a11,11,0,0,0,.2,1.8,17.86,17.86,0,0,1,.2,2.3c.1.9.2,1.9.3,2.8.1,1.1.3,2.2.4,3.3.4,3.1.9,6.2,1.4,9.3.1.8.3,1.7.4,2.5a264.55,264.55,0,0,0,6.1,27,9.83,9.83,0,0,0,.5,1.6c.8,2.7,1.6,5.3,2.4,7.9.2.5.3,1.1.5,1.6.3.8.5,1.6.8,2.4a28.27,28.27,0,0,0,1.1,3.1c.3.8.6,1.6.9,2.5.2.6.5,1.3.7,1.9s.5,1.2.7,1.8c.4,1,.8,2,1.2,3.1.3.8.6,1.5.9,2.3.2.6.5,1.2.7,1.8,1,2.5,2.1,4.9,3.2,7.3a13,13,0,0,0,.8,1.7c.4.9.9,1.9,1.3,2.8.6,1.3,1.3,2.7,1.9,4s1.4,2.7,2,4.1c.5,1,1,1.9,1.5,2.9a252.85,252.85,0,0,0,15.1,25.1c.9,1.4,1.9,2.8,2.9,4.1.6.9,1.2,1.7,1.8,2.5l1.8,2.4a17,17,0,0,1,1,1.4l2.1,2.7,2.4,3c.6.7,1.2,1.5,1.8,2.2l1.3,1.6c.7.9,1.5,1.8,2.2,2.6,1.6,1.9,3.1,3.7,4.8,5.5.7.7,1.3,1.5,2,2.2,3.3,3.6,6.6,7.1,10.1,10.5.8.8,1.7,1.6,2.5,2.4,1,.9,2,1.9,2.9,2.8s2,1.8,3,2.8c.8.7,1.6,1.5,2.4,2.2a20,20,0,0,0,1.6,1.4c1.7,1.5,3.4,2.9,5.1,4.4.7.6,1.4,1.2,2.2,1.8,1.6,1.3,3.2,2.5,4.8,3.8l2.6,2c1.1.8,2.1,1.6,3.2,2.4l.1.1c1.1.8,2.2,1.6,3.3,2.3l4,2.8,2.7,1.8,3.3,2.1c1.2.8,2.4,1.5,3.5,2.3s2.3,1.4,3.5,2.1,2.2,1.3,3.2,1.9l.6.3c1,.6,1.9,1.1,2.9,1.7l.6.3c1.1.6,2.3,1.3,3.4,1.9,1.4.8,2.9,1.5,4.3,2.3,1,.5,1.9,1,2.9,1.5,1.2.6,2.4,1.2,3.7,1.8s2.5,1.2,3.7,1.8c1,.5,2.1,1,3.1,1.4a539.09,539.09,0,0,1-159,23.8C241.8,1080,0,838.2,0,540S241.8,0,540,0,1080,241.8,1080,540Z"/><path class="cls-1" d="M763.8,1076.1c1,.2,1.9.3,2.9.5C765.7,1076.4,764.7,1076.2,763.8,1076.1Z"/><path class="cls-1" d="M735.1,1069.5c1,.3,2,.6,3,.8C737.1,1070.1,736.1,1069.8,735.1,1069.5Z"/><path class="cls-1" d="M747.2,1072.7c1,.2,2,.5,3,.7C749.2,1073.1,748.2,1072.9,747.2,1072.7Z"/><path class="cls-1" d="M780.8,1078.4l3.3.3A18.43,18.43,0,0,1,780.8,1078.4Z"/><path class="cls-1" d="M771.6,1077.3c1.3.2,2.6.4,4,.5C774.3,1077.7,773,1077.5,771.6,1077.3Z"/><path class="cls-1" d="M792.7,1079.4c1.4.1,2.7.2,4.1.2C795.4,1079.6,794,1079.5,792.7,1079.4Z"/><path class="cls-1" d="M707.2,1059.7c1.3.5,2.5,1,3.8,1.5A29.91,29.91,0,0,1,707.2,1059.7Z"/><path class="cls-1" d="M797.6,1079.7c1,.1,2,.1,3.1.1C799.6,1079.8,798.6,1079.8,797.6,1079.7Z"/><path class="cls-1" d="M802.1,1079.9a17,17,0,0,1,2.2.1A17,17,0,0,0,802.1,1079.9Z"/><path class="cls-1" d="M738.6,1070.5c1.3.3,2.6.7,3.9,1C741.2,1071.2,739.9,1070.8,738.6,1070.5Z"/></g><text class="cls-3" transform="translate(238 964)">T</text><text class="cls-4" transform="translate(677 964)">n</text></svg>